<svg width="20" height="21" viewBox="0 0 20 21" fill="none" xmlns="http://www.w3.org/2000/svg">
<g id="Iconly/Light-outline/Arrow - Right">
<g id="Arrow - Right">
<path id="Arrow - Right_2" fill-rule="evenodd" clip-rule="evenodd" d="M3.0893 10.119C2.7565 10.1648 2.5 10.4543 2.5 10.8046C2.5 11.1867 2.80526 11.4965 3.18182 11.4965H15.1666L10.8372 15.8725L10.7711 15.9499C10.5725 16.2204 10.5937 16.6049 10.8352 16.851C11.101 17.1218 11.5327 17.1227 11.7995 16.853L17.2898 11.3043C17.3225 11.2725 17.3521 11.2375 17.378 11.1996C17.5639 10.9294 17.5377 10.5546 17.2994 10.3139L11.7994 4.7563L11.7228 4.68947C11.4555 4.48907 11.0767 4.51223 10.8352 4.75841C10.5695 5.0292 10.5704 5.46731 10.8373 5.73694L15.1677 10.1127H3.18182L3.0893 10.119Z" fill="white"/>
</g>
</g>
</svg>
