<svg width="24" height="46" viewBox="0 0 24 46" fill="none" xmlns="http://www.w3.org/2000/svg">
<g id="SVG">
<path id="Vector" d="M12 4.77295C12.2615 4.77295 12.5233 4.86766 12.723 5.05684L22.9503 14.7458C23.3499 15.1244 23.3499 15.7375 22.9503 16.1158C22.5507 16.4942 21.9034 16.4944 21.5041 16.1158L12 7.11187L2.49576 16.1158C2.09613 16.4944 1.449 16.4944 1.04963 16.1158C0.650253 15.7372 0.649997 15.1242 1.04963 14.7458L11.2769 5.05684C11.4766 4.86766 11.7384 4.77295 12 4.77295Z" fill="white"/>
<path id="Vector_2" d="M12.7844 40.9708C12.7844 41.4473 12.3981 41.8337 11.9215 41.8337C11.4449 41.8337 11.0586 41.4473 11.0586 40.9708H12.7844ZM11.0586 40.9708V6.99707H12.7844V40.9708H11.0586Z" fill="white"/>
</g>
</svg>
