<svg width="24" height="25" viewBox="0 0 24 25" fill="none" xmlns="http://www.w3.org/2000/svg">
<g id="vuesax/linear/call-calling">
<g id="call-calling">
<g id="call-calling_2">
<path id="Vector" d="M21.97 19.1347C21.97 19.4947 21.89 19.8647 21.72 20.2247C21.55 20.5847 21.33 20.9247 21.04 21.2447C20.55 21.7847 20.01 22.1747 19.4 22.4247C18.8 22.6747 18.15 22.8047 17.45 22.8047C16.43 22.8047 15.34 22.5647 14.19 22.0747C13.04 21.5847 11.89 20.9247 10.75 20.0947C9.6 19.2547 8.51 18.3247 7.47 17.2947C6.44 16.2547 5.51 15.1647 4.68 14.0247C3.86 12.8847 3.2 11.7447 2.72 10.6147C2.24 9.47469 2 8.38469 2 7.34469C2 6.66469 2.12 6.01469 2.36 5.41469C2.6 4.80469 2.98 4.24469 3.51 3.74469C4.15 3.11469 4.85 2.80469 5.59 2.80469C5.87 2.80469 6.15 2.86469 6.4 2.98469C6.66 3.10469 6.89 3.28469 7.07 3.54469L9.39 6.81469C9.57 7.06469 9.7 7.29469 9.79 7.51469C9.88 7.72469 9.93 7.93469 9.93 8.12469C9.93 8.36469 9.86 8.60469 9.72 8.83469C9.59 9.06469 9.4 9.30469 9.16 9.54469L8.4 10.3347C8.29 10.4447 8.24 10.5747 8.24 10.7347C8.24 10.8147 8.25 10.8847 8.27 10.9647C8.3 11.0447 8.33 11.1047 8.35 11.1647C8.53 11.4947 8.84 11.9247 9.28 12.4447C9.73 12.9647 10.21 13.4947 10.73 14.0247C11.27 14.5547 11.79 15.0447 12.32 15.4947C12.84 15.9347 13.27 16.2347 13.61 16.4147C13.66 16.4347 13.72 16.4647 13.79 16.4947C13.87 16.5247 13.95 16.5347 14.04 16.5347C14.21 16.5347 14.34 16.4747 14.45 16.3647L15.21 15.6147C15.46 15.3647 15.7 15.1747 15.93 15.0547C16.16 14.9147 16.39 14.8447 16.64 14.8447C16.83 14.8447 17.03 14.8847 17.25 14.9747C17.47 15.0647 17.7 15.1947 17.95 15.3647L21.26 17.7147C21.52 17.8947 21.7 18.1047 21.81 18.3547C21.91 18.6047 21.97 18.8547 21.97 19.1347Z" stroke="#746D6F" stroke-miterlimit="10"/>
<path id="Vector_2" d="M18.5 9.80469C18.5 9.20469 18.03 8.28469 17.33 7.53469C16.69 6.84469 15.84 6.30469 15 6.30469" stroke="#746D6F" stroke-linecap="round" stroke-linejoin="round"/>
<path id="Vector_3" d="M22 9.80469C22 5.93469 18.87 2.80469 15 2.80469" stroke="#746D6F" stroke-linecap="round" stroke-linejoin="round"/>
</g>
</g>
</g>
</svg>
