<svg width="25" height="24" viewBox="0 0 25 24" fill="none" xmlns="http://www.w3.org/2000/svg">
<g id="camera-01">
<path id="Icon" d="M7.95234 6.11999V6.99499C8.26355 6.99499 8.55134 6.82969 8.70815 6.56088L7.95234 6.11999ZM9.63234 3.23999V2.36499C9.32113 2.36499 9.03335 2.53029 8.87654 2.7991L9.63234 3.23999ZM15.8723 3.23999L16.6282 2.7991C16.4713 2.53029 16.1836 2.36499 15.8723 2.36499V3.23999ZM17.5523 6.11999L16.7965 6.56088C16.9533 6.82969 17.2411 6.99499 17.5523 6.99499V6.11999ZM4.02734 18.36V8.51999H2.27734V18.36H4.02734ZM5.55234 6.99499H7.95234V5.24499H5.55234V6.99499ZM8.70815 6.56088L10.3882 3.68088L8.87654 2.7991L7.19654 5.6791L8.70815 6.56088ZM9.63234 4.11499H15.8723V2.36499H9.63234V4.11499ZM15.1165 3.68088L16.7965 6.56088L18.3081 5.6791L16.6282 2.7991L15.1165 3.68088ZM17.5523 6.99499H19.9523V5.24499H17.5523V6.99499ZM21.4773 8.51999V18.36H23.2273V8.51999H21.4773ZM21.4773 18.36C21.4773 19.2022 20.7946 19.885 19.9523 19.885V21.635C21.7611 21.635 23.2273 20.1687 23.2273 18.36H21.4773ZM19.9523 6.99499C20.7946 6.99499 21.4773 7.67776 21.4773 8.51999H23.2273C23.2273 6.71126 21.7611 5.24499 19.9523 5.24499V6.99499ZM4.02734 8.51999C4.02734 7.67776 4.71011 6.99499 5.55234 6.99499V5.24499C3.74361 5.24499 2.27734 6.71126 2.27734 8.51999H4.02734ZM5.55234 19.885C4.71011 19.885 4.02734 19.2022 4.02734 18.36H2.27734C2.27734 20.1687 3.74361 21.635 5.55234 21.635V19.885ZM15.4773 12.84C15.4773 14.345 14.2573 15.565 12.7523 15.565V17.315C15.2238 17.315 17.2273 15.3115 17.2273 12.84H15.4773ZM12.7523 15.565C11.2474 15.565 10.0273 14.345 10.0273 12.84H8.27734C8.27734 15.3115 10.2809 17.315 12.7523 17.315V15.565ZM10.0273 12.84C10.0273 11.335 11.2474 10.115 12.7523 10.115V8.36499C10.2809 8.36499 8.27734 10.3685 8.27734 12.84H10.0273ZM12.7523 10.115C14.2573 10.115 15.4773 11.335 15.4773 12.84H17.2273C17.2273 10.3685 15.2238 8.36499 12.7523 8.36499V10.115ZM19.9523 19.885H5.55234V21.635H19.9523V19.885Z" fill="#4ACECB"/>
</g>
</svg>
