<svg width="34" height="29" viewBox="0 0 34 29" fill="none" xmlns="http://www.w3.org/2000/svg">
<path d="M3.49993 14.2997H21.4999M7.09993 18.4997H10.0999M5.30039 10.0999H19.7C21.0255 10.0999 22.1 11.1735 22.1 12.499L22.1003 21.5009C22.1003 22.8264 21.0258 23.8998 19.7003 23.8998L5.30062 23.8997C3.97518 23.8997 2.90069 22.8252 2.90065 21.4998L2.90039 12.4999C2.90035 11.1744 3.97488 10.0999 5.30039 10.0999Z" stroke="#2F181F" stroke-linecap="round" stroke-linejoin="round"/>
<g clip-path="url(#clip0_315_13301)">
<path d="M23.5002 19.9C28.9126 19.9 33.3002 15.5124 33.3002 10.1C33.3002 4.68766 28.9126 0.300049 23.5002 0.300049C18.0878 0.300049 13.7002 4.68766 13.7002 10.1C13.7002 15.5124 18.0878 19.9 23.5002 19.9Z" fill="#2F181F"/>
<path d="M18.7719 6.26152V13.2479H17.5038V7.74014L15.8242 8.29521V7.27119L18.6283 6.26152H18.7719Z" fill="#FCFCFC"/>
<path d="M25.8348 12.2525V13.2479H21.1166V12.3961L23.38 9.95088C23.616 9.68291 23.8027 9.45003 23.9398 9.25225C24.077 9.05446 24.1743 8.87581 24.2317 8.71631C24.2923 8.55361 24.3227 8.39889 24.3227 8.25215C24.3227 8.03841 24.2844 7.85179 24.2078 7.69229C24.1313 7.52959 24.0196 7.40358 23.8729 7.31426C23.7293 7.22493 23.5522 7.18027 23.3417 7.18027C23.1088 7.18027 22.9094 7.23451 22.7436 7.34297C22.5809 7.44824 22.4564 7.59499 22.3703 7.7832C22.2874 7.97142 22.2459 8.18675 22.2459 8.4292H20.9778C20.9778 8.01768 21.0735 7.64284 21.2649 7.30469C21.4563 6.96335 21.7307 6.69059 22.088 6.48643C22.4453 6.28226 22.8696 6.18018 23.3608 6.18018C23.8394 6.18018 24.2445 6.25993 24.5763 6.41943C24.908 6.57575 25.1601 6.79906 25.3323 7.08936C25.5046 7.37966 25.5907 7.72578 25.5907 8.12773C25.5907 8.35104 25.554 8.57116 25.4807 8.78809C25.4073 9.00501 25.3036 9.22035 25.1696 9.43408C25.0388 9.64463 24.8825 9.85837 24.7007 10.0753C24.5188 10.2922 24.3163 10.5139 24.093 10.7404L22.734 12.2525H25.8348Z" fill="#FCFCFC"/>
<path d="M28.0981 9.20439H28.8111C29.0632 9.20439 29.2705 9.16133 29.4332 9.0752C29.5991 8.98587 29.7219 8.86465 29.8017 8.71152C29.8846 8.55521 29.9261 8.37497 29.9261 8.1708C29.9261 7.96982 29.8894 7.79596 29.816 7.64922C29.7426 7.49928 29.631 7.38444 29.4811 7.30469C29.3343 7.22174 29.1461 7.18027 28.9164 7.18027C28.7314 7.18027 28.5607 7.21696 28.4044 7.29033C28.2513 7.3637 28.1285 7.46898 28.0359 7.60615C27.9466 7.74014 27.902 7.90124 27.902 8.08945H26.6339C26.6339 7.71302 26.7328 7.38285 26.9306 7.09893C27.1315 6.81182 27.4027 6.58691 27.744 6.42422C28.0854 6.26152 28.4666 6.18018 28.8877 6.18018C29.3471 6.18018 29.749 6.25674 30.0936 6.40986C30.4413 6.5598 30.7108 6.78151 30.9022 7.075C31.0968 7.36849 31.1941 7.73216 31.1941 8.16602C31.1941 8.37337 31.1447 8.58073 31.0458 8.78809C30.9501 8.99225 30.8081 9.17728 30.6199 9.34316C30.4349 9.50586 30.2068 9.63825 29.9356 9.74033C29.6677 9.83923 29.3598 9.88867 29.0121 9.88867H28.0981V9.20439ZM28.0981 10.1806V9.50586H29.0121C29.4045 9.50586 29.7442 9.55212 30.0313 9.64463C30.3216 9.73395 30.5609 9.86156 30.7491 10.0274C30.9373 10.1901 31.0761 10.3799 31.1654 10.5969C31.2579 10.8138 31.3042 11.0467 31.3042 11.2955C31.3042 11.6209 31.2436 11.9112 31.1224 12.1664C31.0011 12.4184 30.8305 12.6322 30.6104 12.8076C30.3934 12.9831 30.1382 13.1171 29.8447 13.2096C29.5512 13.2989 29.2338 13.3436 28.8925 13.3436C28.5958 13.3436 28.3071 13.3037 28.0264 13.2239C27.7488 13.141 27.4984 13.0182 27.2751 12.8555C27.0518 12.6896 26.8747 12.4822 26.7439 12.2334C26.6132 11.9814 26.5478 11.6895 26.5478 11.3577H27.8158C27.8158 11.5491 27.8621 11.7198 27.9546 11.8697C28.0503 12.0197 28.1811 12.1377 28.347 12.2238C28.516 12.3068 28.7059 12.3482 28.9164 12.3482C29.1493 12.3482 29.3487 12.3068 29.5146 12.2238C29.6836 12.1377 29.8128 12.0165 29.9021 11.8602C29.9915 11.7007 30.0361 11.5108 30.0361 11.2907C30.0361 11.0291 29.9867 10.817 29.8878 10.6543C29.7889 10.4916 29.6469 10.372 29.4619 10.2954C29.2801 10.2188 29.0632 10.1806 28.8111 10.1806H28.0981Z" fill="#FCFCFC"/>
</g>
<defs>
<clipPath id="clip0_315_13301">
<rect width="19.6" height="19.6" fill="white" transform="translate(13.7002 0.300049)"/>
</clipPath>
</defs>
</svg>
