<svg width="21" height="21" viewBox="0 0 21 21" fill="none" xmlns="http://www.w3.org/2000/svg">
<g id="profile ICONS">
<g id="Vector">
<path fill-rule="evenodd" clip-rule="evenodd" d="M10.4589 2.4167C10.252 2.4167 9.9935 2.51951 9.76455 2.8286L9.76088 2.83355L8.91182 3.9573C8.0783 5.07085 6.56771 5.15308 5.60976 4.14512L5.60779 4.14316C5.6025 4.13787 5.59729 4.13248 5.59218 4.12701C5.16304 3.66749 4.82615 3.48272 4.61991 3.43615C4.4899 3.40679 4.4195 3.42674 4.35297 3.49637C4.13552 4.0024 4.02559 4.76707 4.02559 5.9667V14.2334C4.02559 15.4409 4.13696 16.2077 4.35725 16.7136C4.42447 16.7773 4.49653 16.7939 4.62105 16.7654C4.82696 16.7182 5.1624 16.5333 5.59218 16.0731C5.59729 16.0676 5.6025 16.0622 5.60779 16.0569L5.60976 16.0549C6.56772 15.047 8.07831 15.1292 8.91183 16.2428L8.91293 16.2442L9.76457 17.3715C9.99352 17.6805 10.252 17.7834 10.4589 17.7834C10.6658 17.7834 10.9243 17.6806 11.1533 17.3715L11.1565 17.3671L11.9972 16.2517L11.998 16.2507C12.8403 15.1287 14.3662 15.0436 15.326 16.0734C15.8597 16.6458 16.2315 16.775 16.4006 16.775C16.4639 16.775 16.5114 16.7613 16.5596 16.7158C16.7805 16.2099 16.8923 15.4426 16.8923 14.2334V5.9667C16.8923 4.76817 16.7825 4.0038 16.5655 3.49777C16.508 3.43884 16.4569 3.42503 16.4006 3.42503C16.2315 3.42503 15.8597 3.55426 15.326 4.12664C14.3662 5.15655 12.8402 5.07133 11.9978 3.94918L11.9972 3.94837L11.1533 2.82861C10.9243 2.51953 10.6658 2.4167 10.4589 2.4167ZM16.4756 3.15836C16.4756 3.17453 16.4762 3.19066 16.4774 3.20673C16.474 3.17002 16.4756 3.1502 16.4756 3.15836ZM4.44225 3.15836C4.44225 3.1502 4.44384 3.17002 4.44045 3.20673C4.44165 3.19066 4.44225 3.17453 4.44225 3.15836ZM8.7219 2.05214C9.15951 1.46285 9.78353 1.1167 10.4589 1.1167C11.1344 1.1167 11.7585 1.46295 12.1961 2.05241L13.0372 3.16837C13.395 3.64539 13.9685 3.67659 14.3751 3.24024C14.9913 2.5793 15.6863 2.12503 16.4006 2.12503C16.8757 2.12503 17.282 2.33323 17.5748 2.67654C17.6217 2.72245 17.6676 2.78087 17.7046 2.85471C17.7191 2.88351 17.7305 2.9116 17.7397 2.93838C18.0836 3.70966 18.1923 4.7138 18.1923 5.9667V14.2334C18.1923 15.4927 18.0825 16.5007 17.7344 17.2735C17.7208 17.311 17.7078 17.337 17.7021 17.3483L17.7016 17.3494C17.6833 17.3859 17.6538 17.4372 17.6089 17.4907C17.3055 17.8687 16.8815 18.075 16.4006 18.075C15.6863 18.075 14.9915 17.6209 14.3752 16.96C13.9686 16.5236 13.395 16.5547 13.0372 17.0317L13.0363 17.0329L12.1979 18.1453L12.1962 18.1475C11.7586 18.7371 11.1345 19.0834 10.4589 19.0834C9.78351 19.0834 9.15949 18.7372 8.72187 18.1479L8.71992 18.1453L7.87161 17.0225C7.52364 16.5569 6.95726 16.5206 6.54859 16.9542L6.53502 16.9682C6.02535 17.5119 5.47545 17.9033 4.91138 18.0326C4.29428 18.174 3.71435 17.9849 3.31276 17.4951C3.26569 17.4401 3.23506 17.3869 3.21624 17.3494L3.21569 17.3483C3.21004 17.337 3.19702 17.311 3.18349 17.2735C2.83534 16.5007 2.72559 15.4927 2.72559 14.2334V5.9667C2.72559 4.7138 2.83422 3.70966 3.17817 2.93838C3.1873 2.9116 3.19877 2.88351 3.2132 2.85471C3.24986 2.78154 3.29532 2.7235 3.34178 2.67779C3.73805 2.20987 4.30521 2.03236 4.90626 2.16808C5.47209 2.29585 6.02407 2.68687 6.53441 3.23129L6.54859 3.24587C6.95726 3.67947 7.52365 3.64316 7.87161 3.17758L7.87364 3.17486L8.7219 2.05214Z" fill="#2F181F"/>
<path fill-rule="evenodd" clip-rule="evenodd" d="M6.89225 8.6417C6.89225 8.28271 7.18327 7.9917 7.54225 7.9917H14.2089C14.5679 7.9917 14.8589 8.28271 14.8589 8.6417C14.8589 9.00068 14.5679 9.2917 14.2089 9.2917H7.54225C7.18327 9.2917 6.89225 9.00068 6.89225 8.6417Z" fill="#2F181F"/>
<path fill-rule="evenodd" clip-rule="evenodd" d="M6.89225 11.5584C6.89225 11.1994 7.18327 10.9084 7.54225 10.9084H12.5423C12.9012 10.9084 13.1923 11.1994 13.1923 11.5584C13.1923 11.9174 12.9012 12.2084 12.5423 12.2084H7.54225C7.18327 12.2084 6.89225 11.9174 6.89225 11.5584Z" fill="#2F181F"/>
</g>
</g>
</svg>
