<svg width="21" height="21" viewBox="0 0 21 21" fill="none" xmlns="http://www.w3.org/2000/svg">
<g id="vuesax/linear/logout">
<g id="logout">
<g id="Vector">
<path fill-rule="evenodd" clip-rule="evenodd" d="M14.9678 7.57474C15.2119 7.33066 15.6076 7.33066 15.8517 7.57474L17.985 9.70808C18.2291 9.95215 18.2291 10.3479 17.985 10.592L15.8517 12.7253C15.6076 12.9694 15.2119 12.9694 14.9678 12.7253C14.7237 12.4812 14.7237 12.0855 14.9678 11.8414L16.6592 10.15L14.9678 8.45862C14.7237 8.21455 14.7237 7.81882 14.9678 7.57474Z" fill="#FC534F"/>
<path fill-rule="evenodd" clip-rule="evenodd" d="M8.38477 10.15C8.38477 9.80484 8.66459 9.52502 9.00977 9.52502H17.4848C17.8299 9.52502 18.1098 9.80484 18.1098 10.15C18.1098 10.4952 17.8299 10.775 17.4848 10.775H9.00977C8.66459 10.775 8.38477 10.4952 8.38477 10.15Z" fill="#FC534F"/>
<path fill-rule="evenodd" clip-rule="evenodd" d="M6.3923 5.65733C5.32027 6.67566 4.63477 8.17371 4.63477 10.1C4.63477 12.0263 5.32027 13.5244 6.3923 14.5427C7.46928 15.5657 8.97592 16.1417 10.6764 16.1417C11.0216 16.1417 11.3014 16.4215 11.3014 16.7667C11.3014 17.1119 11.0216 17.3917 10.6764 17.3917C8.69361 17.3917 6.86692 16.7176 5.5314 15.449C4.19093 14.1757 3.38477 12.3404 3.38477 10.1C3.38477 7.85966 4.19093 6.02437 5.5314 4.75104C6.86692 3.48241 8.69361 2.80835 10.6764 2.80835C11.0216 2.80835 11.3014 3.08817 11.3014 3.43335C11.3014 3.77853 11.0216 4.05835 10.6764 4.05835C8.97592 4.05835 7.46928 4.63429 6.3923 5.65733Z" fill="#FC534F"/>
</g>
</g>
</g>
</svg>
