<svg width="21" height="21" viewBox="0 0 21 21" fill="none" xmlns="http://www.w3.org/2000/svg">
<g id="profile ICONS">
<g id="Vector">
<path d="M10.8939 17.6699C8.82632 17.6699 6.75869 17.3415 4.79755 16.6848C4.05214 16.4275 3.48421 15.9039 3.23574 15.2206C2.97839 14.5374 3.06713 13.7831 3.47533 13.1086L4.49584 11.4137C4.70881 11.0588 4.90404 10.3489 4.90404 9.93178V7.36721C4.90404 4.0661 7.59284 1.3773 10.8939 1.3773C14.1951 1.3773 16.8839 4.0661 16.8839 7.36721V9.93178C16.8839 10.34 17.0791 11.0588 17.2921 11.4226L18.3037 13.1086C18.6853 13.7476 18.7563 14.5196 18.4989 15.2206C18.2416 15.9217 17.6825 16.4541 16.9815 16.6848C15.0292 17.3415 12.9616 17.6699 10.8939 17.6699ZM10.8939 2.70839C8.32938 2.70839 6.23513 4.79377 6.23513 7.36721V9.93178C6.23513 10.5796 5.96891 11.538 5.64058 12.097L4.62007 13.7919C4.42485 14.1203 4.3716 14.4664 4.48696 14.7592C4.59345 15.0609 4.85967 15.2916 5.2235 15.4159C8.93281 16.6582 12.864 16.6582 16.5733 15.4159C16.8927 15.3094 17.1412 15.0698 17.2566 14.7503C17.3719 14.4309 17.3453 14.0848 17.1678 13.7919L16.1473 12.097C15.8101 11.5202 15.5528 10.5707 15.5528 9.9229V7.36721C15.5528 4.79377 13.4674 2.70839 10.8939 2.70839Z" fill="#2F181F"/>
<path d="M12.5452 2.94799C12.483 2.94799 12.4209 2.93911 12.3588 2.92136C12.1015 2.85037 11.853 2.79713 11.6134 2.76163C10.8591 2.66402 10.1314 2.71726 9.44815 2.92136C9.19968 3.00123 8.93346 2.92136 8.76485 2.73501C8.59625 2.54866 8.543 2.28244 8.64062 2.04285C9.00445 1.11108 9.89184 0.498779 10.9035 0.498779C11.9151 0.498779 12.8025 1.10221 13.1663 2.04285C13.2551 2.28244 13.2107 2.54866 13.0421 2.73501C12.909 2.877 12.7226 2.94799 12.5452 2.94799Z" fill="#2F181F"/>
<path d="M10.8943 19.6931C10.0158 19.6931 9.16392 19.3382 8.54275 18.717C7.92157 18.0958 7.56661 17.2439 7.56661 16.3654H8.8977C8.8977 16.8889 9.11068 17.4036 9.48338 17.7763C9.85609 18.149 10.3708 18.362 10.8943 18.362C11.9947 18.362 12.891 17.4658 12.891 16.3654H14.2221C14.2221 18.2023 12.7312 19.6931 10.8943 19.6931Z" fill="#2F181F"/>
</g>
</g>
</svg>
