<svg width="21" height="21" viewBox="0 0 21 21" fill="none" xmlns="http://www.w3.org/2000/svg">
<g id="profile ICONS">
<g id="Vector">
<path d="M16.7106 11.2334H2.54395C2.20228 11.2334 1.91895 10.9501 1.91895 10.6084C1.91895 10.2667 2.20228 9.98341 2.54395 9.98341H16.7106C17.0523 9.98341 17.3356 10.2667 17.3356 10.6084C17.3356 10.9501 17.0523 11.2334 16.7106 11.2334Z" fill="white"/>
<path d="M13.5606 18.2251H5.69397C2.83564 18.2251 1.91895 17.3168 1.91895 14.4918V8.66676C1.91895 6.42509 2.4273 5.10009 5.01063 4.95009C5.2273 4.94176 5.4523 4.93343 5.69397 4.93343H13.5606C16.4189 4.93343 17.3356 5.84176 17.3356 8.66676V14.6251C17.3023 17.3501 16.3856 18.2251 13.5606 18.2251ZM5.69397 6.18343C5.46897 6.18343 5.26064 6.19176 5.06897 6.20009C3.5773 6.29176 3.16895 6.60843 3.16895 8.66676V14.4918C3.16895 16.6251 3.51897 16.9751 5.69397 16.9751H13.5606C15.7106 16.9751 16.0606 16.6418 16.0856 14.6168V8.66676C16.0856 6.53343 15.7356 6.18343 13.5606 6.18343H5.69397Z" fill="white"/>
<path d="M16.7106 15.2501C16.5523 15.2501 16.3939 15.1918 16.2856 15.0834C16.1606 14.9668 16.0856 14.8001 16.0856 14.6251V8.66676C16.0856 6.53343 15.7356 6.18343 13.5606 6.18343H5.69397C5.46897 6.18343 5.26064 6.19176 5.06897 6.20009C4.9023 6.20843 4.7356 6.14177 4.6106 6.0251C4.4856 5.90843 4.41895 5.74177 4.41895 5.56677C4.45228 2.8501 5.36897 1.9751 8.19397 1.9751H16.0606C18.9189 1.9751 19.8356 2.88343 19.8356 5.70843V11.5334C19.8356 13.7751 19.3273 15.1001 16.7439 15.2501C16.7356 15.2501 16.7189 15.2501 16.7106 15.2501ZM5.69397 4.93343H13.5606C16.4189 4.93343 17.3356 5.84176 17.3356 8.66676V13.9334C18.3023 13.7584 18.5856 13.2584 18.5856 11.5334V5.70843C18.5856 3.5751 18.2356 3.2251 16.0606 3.2251H8.19397C6.29397 3.2251 5.8023 3.48343 5.69397 4.93343Z" fill="white"/>
<path d="M6.6775 15.5668H5.24414C4.90247 15.5668 4.61914 15.2834 4.61914 14.9418C4.61914 14.6001 4.90247 14.3168 5.24414 14.3168H6.6775C7.01917 14.3168 7.3025 14.6001 7.3025 14.9418C7.3025 15.2834 7.0275 15.5668 6.6775 15.5668Z" fill="white"/>
<path d="M11.3354 15.5668H8.46875C8.12708 15.5668 7.84375 15.2834 7.84375 14.9418C7.84375 14.6001 8.12708 14.3168 8.46875 14.3168H11.3354C11.6771 14.3168 11.9604 14.6001 11.9604 14.9418C11.9604 15.2834 11.6854 15.5668 11.3354 15.5668Z" fill="white"/>
</g>
</g>
</svg>
