<svg width="48" height="48" viewBox="0 0 48 48" fill="none" xmlns="http://www.w3.org/2000/svg">
<path d="M0 12C0 5.37258 5.37258 0 12 0H36C42.6274 0 48 5.37258 48 12V36C48 42.6274 42.6274 48 36 48H12C5.37258 48 0 42.6274 0 36V12Z" fill="#DBF5F5"/>
<g clip-path="url(#clip0_315_13632)">
<path d="M24.5457 16.5845C24.016 14.6595 22.8524 12.3127 21.5283 10.3417C21.4681 10.2535 21.3076 10.2765 21.2956 10.3762C21.2113 11.0741 20.9866 12.6617 20.8983 13.3404C20.8743 13.5245 20.9264 13.7085 21.0428 13.8696C21.6928 14.7784 22.2706 15.7946 23.0249 17.2671C24.4093 19.9705 24.5497 22.1678 24.5096 23.2338C24.4935 23.6825 24.4454 23.9317 24.4454 23.9317C24.5938 23.5406 24.8105 22.9922 24.9309 22.4247C25.1114 21.5581 25.3522 19.4874 24.5537 16.5884" fill="#FC534F"/>
<path d="M20.4223 18.2219L19.8164 20.492C19.7964 20.5764 19.8285 20.6607 19.9007 20.7106C21.7464 22.0029 22.0795 24.4302 22.0795 25.0706C22.0795 25.201 22.6773 23.7668 22.6773 22.2099C22.6773 20.6531 22.1477 19.5333 20.7955 18.1337C20.6791 18.011 20.4624 18.0608 20.4223 18.2219Z" fill="#FFB448"/>
<mask id="mask0_315_13632" style="mask-type:luminance" maskUnits="userSpaceOnUse" x="17" y="23" width="15" height="11">
<path d="M24.7532 25.7187C22.8032 26.6007 18.6703 29.3616 17.2539 33.8098C17.4104 33.3152 19.862 29.9829 23.7461 28.38C25.8687 27.5057 30.2383 26.4396 30.2383 26.4396L31.7269 23.3374C28.541 24.2079 26.3582 24.9901 24.7532 25.7187Z" fill="white"/>
</mask>
<g mask="url(#mask0_315_13632)">
<path d="M31.7269 23.3374H17.2539V33.8098H31.7269V23.3374Z" fill="url(#paint0_linear_315_13632)"/>
</g>
<path d="M32.6428 22.95C32.8394 22.8925 32.9999 23.0996 32.8915 23.2644L31.2223 25.7071C31.1742 25.7876 20.8461 28.0424 15.1002 27.7472C14.9557 27.7395 14.8634 27.6014 14.9076 27.4711L15.7301 25.1127C15.7502 25.0552 15.8064 25.0207 15.8706 25.0207C19.0766 25.2048 29.4769 23.8933 32.6428 22.95Z" fill="#4ACECB"/>
<path d="M30.4405 27.4059L28.9679 30.5158C28.9679 30.5158 24.9153 31.4745 22.7967 32.3565C18.9207 33.9747 16.1601 37.4412 16.0156 37.9397C17.099 34.1204 21.1877 30.6692 24.0326 29.4421C25.6536 28.7442 27.2546 28.2879 30.4365 27.4021" fill="#FC534F"/>
<path d="M24.2001 37.1921L21.8006 36.0072C21.7003 35.9574 21.6602 35.8385 21.7123 35.7426L22.9522 33.4495C23.0044 33.3536 23.1288 33.3153 23.2291 33.3651L25.6285 34.5501C25.7288 34.5999 25.769 34.7188 25.7168 34.8146L24.477 37.1078C24.4248 37.2036 24.3004 37.242 24.2001 37.1921Z" fill="#FFB448"/>
</g>
<defs>
<linearGradient id="paint0_linear_315_13632" x1="18.4144" y1="29.2065" x2="32.8874" y2="29.2065" gradientUnits="userSpaceOnUse">
<stop stop-color="#43B3B1"/>
<stop offset="1" stop-color="#66CCCC"/>
</linearGradient>
<clipPath id="clip0_315_13632">
<rect width="18.642" height="27.9631" fill="white" transform="translate(14.6797 10.0186)"/>
</clipPath>
</defs>
</svg>
