<svg width="48" height="48" viewBox="0 0 48 48" fill="none" xmlns="http://www.w3.org/2000/svg">
<path d="M0 12C0 5.37258 5.37258 0 12 0H36C42.6274 0 48 5.37258 48 12V36C48 42.6274 42.6274 48 36 48H12C5.37258 48 0 42.6274 0 36V12Z" fill="#EDF3FF"/>
<path d="M33.5309 22.8699L32.0109 21.3499C31.7509 21.0899 31.5409 20.5799 31.5409 20.2199V18.0599C31.5409 17.1799 30.8209 16.4599 29.9409 16.4599H27.7909C27.4309 16.4599 26.9209 16.2499 26.6609 15.9899L25.1409 14.4699C24.5209 13.8499 23.5009 13.8499 22.8809 14.4699L21.3409 15.9899C21.0909 16.2499 20.5809 16.4599 20.2109 16.4599H18.0609C17.1809 16.4599 16.4609 17.1799 16.4609 18.0599V20.2099C16.4609 20.5699 16.2509 21.0799 15.9909 21.3399L14.4709 22.8599C13.8509 23.4799 13.8509 24.4999 14.4709 25.1199L15.9909 26.6399C16.2509 26.8999 16.4609 27.4099 16.4609 27.7699V29.9199C16.4609 30.7999 17.1809 31.5199 18.0609 31.5199H20.2109C20.5709 31.5199 21.0809 31.7299 21.3409 31.9899L22.8609 33.5099C23.4809 34.1299 24.5009 34.1299 25.1209 33.5099L26.6409 31.9899C26.9009 31.7299 27.4109 31.5199 27.7709 31.5199H29.9209C30.8009 31.5199 31.5209 30.7999 31.5209 29.9199V27.7699C31.5209 27.4099 31.7309 26.8999 31.9909 26.6399L33.5109 25.1199C34.1609 24.5099 34.1609 23.4899 33.5309 22.8699ZM20.0009 20.9999C20.0009 20.4499 20.4509 19.9999 21.0009 19.9999C21.5509 19.9999 22.0009 20.4499 22.0009 20.9999C22.0009 21.5499 21.5609 21.9999 21.0009 21.9999C20.4509 21.9999 20.0009 21.5499 20.0009 20.9999ZM21.5309 27.5299C21.3809 27.6799 21.1909 27.7499 21.0009 27.7499C20.8109 27.7499 20.6209 27.6799 20.4709 27.5299C20.1809 27.2399 20.1809 26.7599 20.4709 26.4699L26.4709 20.4699C26.7609 20.1799 27.2409 20.1799 27.5309 20.4699C27.8209 20.7599 27.8209 21.2399 27.5309 21.5299L21.5309 27.5299ZM27.0009 27.9999C26.4409 27.9999 25.9909 27.5499 25.9909 26.9999C25.9909 26.4499 26.4409 25.9999 26.9909 25.9999C27.5409 25.9999 27.9909 26.4499 27.9909 26.9999C27.9909 27.5499 27.5509 27.9999 27.0009 27.9999Z" fill="#5188F5"/>
</svg>
