<svg width="48" height="48" viewBox="0 0 48 48" fill="none" xmlns="http://www.w3.org/2000/svg">
<path d="M0 12C0 5.37258 5.37258 0 12 0H36C42.6274 0 48 5.37258 48 12V36C48 42.6274 42.6274 48 36 48H12C5.37258 48 0 42.6274 0 36V12Z" fill="#172B39" fill-opacity="0.1"/>
<path d="M19 14H18C15 14 14 15.79 14 18V19V33C14 33.83 14.94 34.3 15.6 33.8L17.31 32.52C17.71 32.22 18.27 32.26 18.63 32.62L20.29 34.29C20.68 34.68 21.32 34.68 21.71 34.29L23.39 32.61C23.74 32.26 24.3 32.22 24.69 32.52L26.4 33.8C27.06 34.29 28 33.82 28 33V16C28 14.9 28.9 14 30 14H19ZM17.97 26.01C17.42 26.01 16.97 25.56 16.97 25.01C16.97 24.46 17.42 24.01 17.97 24.01C18.52 24.01 18.97 24.46 18.97 25.01C18.97 25.56 18.52 26.01 17.97 26.01ZM17.97 22.01C17.42 22.01 16.97 21.56 16.97 21.01C16.97 20.46 17.42 20.01 17.97 20.01C18.52 20.01 18.97 20.46 18.97 21.01C18.97 21.56 18.52 22.01 17.97 22.01ZM24 25.76H21C20.59 25.76 20.25 25.42 20.25 25.01C20.25 24.6 20.59 24.26 21 24.26H24C24.41 24.26 24.75 24.6 24.75 25.01C24.75 25.42 24.41 25.76 24 25.76ZM24 21.76H21C20.59 21.76 20.25 21.42 20.25 21.01C20.25 20.6 20.59 20.26 21 20.26H24C24.41 20.26 24.75 20.6 24.75 21.01C24.75 21.42 24.41 21.76 24 21.76Z" fill="#172B39"/>
<path d="M30.01 14V15.5C30.67 15.5 31.3 15.77 31.76 16.22C32.24 16.71 32.5 17.34 32.5 18V20.42C32.5 21.16 32.17 21.5 31.42 21.5H29.5V16.01C29.5 15.73 29.73 15.5 30.01 15.5V14ZM30.01 14C28.9 14 28 14.9 28 16.01V23H31.42C33 23 34 22 34 20.42V18C34 16.9 33.55 15.9 32.83 15.17C32.1 14.45 31.11 14.01 30.01 14C30.02 14 30.01 14 30.01 14Z" fill="#172B39"/>
</svg>
