<svg width="25" height="24" viewBox="0 0 25 24" fill="none" xmlns="http://www.w3.org/2000/svg">
<g id="search">
<path id="Path" d="M6.15191 14.5034L5.31651 17.6221L2.26312 17.6867C1.3506 15.9942 0.833008 14.0577 0.833008 11.9999C0.833008 10.01 1.31695 8.1335 2.17476 6.4812H2.17541L4.89379 6.97958L6.0846 9.68164C5.83537 10.4082 5.69952 11.1882 5.69952 11.9999C5.69962 12.8808 5.85918 13.7247 6.15191 14.5034Z" fill="#FBBB00"/>
<path id="Path_2" d="M24.6242 9.7583C24.762 10.4842 24.8338 11.2339 24.8338 12.0001C24.8338 12.8592 24.7435 13.6972 24.5714 14.5056C23.9873 17.2563 22.4609 19.6583 20.3464 21.3581L20.3457 21.3574L16.9218 21.1827L16.4372 18.1576C17.8403 17.3348 18.9368 16.0471 19.5144 14.5056H13.0977V9.7583H19.608H24.6242Z" fill="#518EF8"/>
<path id="Path_3" d="M20.3464 21.3575L20.3471 21.3581C18.2906 23.0111 15.6783 24.0001 12.8345 24.0001C8.26465 24.0001 4.29148 21.4458 2.26465 17.6869L6.15345 14.5037C7.16684 17.2083 9.77585 19.1336 12.8345 19.1336C14.1492 19.1336 15.3809 18.7781 16.4378 18.1577L20.3464 21.3575Z" fill="#28B446"/>
<path id="Path_4" d="M20.4936 2.76263L16.6061 5.94525C15.5123 5.26153 14.2193 4.86656 12.834 4.86656C9.70611 4.86656 7.0483 6.88017 6.08567 9.68175L2.17644 6.48131H2.17578C4.17294 2.63077 8.19622 0 12.834 0C15.7457 0 18.4153 1.03716 20.4936 2.76263Z" fill="#F14336"/>
</g>
</svg>
