<svg width="21" height="21" viewBox="0 0 21 21" fill="none" xmlns="http://www.w3.org/2000/svg">
<g id="profile ICONS">
<g id="Vector">
<path d="M13.3773 19.0585H8.37728C3.85228 19.0585 1.91895 17.1252 1.91895 12.6002V7.60018C1.91895 3.07518 3.85228 1.14185 8.37728 1.14185H12.5439C12.8856 1.14185 13.1689 1.42518 13.1689 1.76685C13.1689 2.10851 12.8856 2.39185 12.5439 2.39185H8.37728C4.53561 2.39185 3.16895 3.75851 3.16895 7.60018V12.6002C3.16895 16.4418 4.53561 17.8085 8.37728 17.8085H13.3773C17.2189 17.8085 18.5856 16.4418 18.5856 12.6002V8.43351C18.5856 8.09185 18.8689 7.80851 19.2106 7.80851C19.5523 7.80851 19.8356 8.09185 19.8356 8.43351V12.6002C19.8356 17.1252 17.9023 19.0585 13.3773 19.0585Z" fill="white"/>
<path d="M19.2106 9.05852H15.8773C13.0273 9.05852 11.9189 7.95018 11.9189 5.10018V1.76685C11.9189 1.51685 12.0689 1.28352 12.3023 1.19185C12.5356 1.09185 12.8023 1.15018 12.9856 1.32518L19.6523 7.99185C19.8273 8.16685 19.8856 8.44185 19.7856 8.67518C19.6856 8.90852 19.4606 9.05852 19.2106 9.05852ZM13.1689 3.27518V5.10018C13.1689 7.25018 13.7273 7.80852 15.8773 7.80852H17.7023L13.1689 3.27518Z" fill="white"/>
<path d="M11.71 11.5585H6.70996C6.36829 11.5585 6.08496 11.2752 6.08496 10.9335C6.08496 10.5918 6.36829 10.3085 6.70996 10.3085H11.71C12.0516 10.3085 12.335 10.5918 12.335 10.9335C12.335 11.2752 12.0516 11.5585 11.71 11.5585Z" fill="white"/>
<path d="M10.0433 14.8918H6.70996C6.36829 14.8918 6.08496 14.6085 6.08496 14.2668C6.08496 13.9252 6.36829 13.6418 6.70996 13.6418H10.0433C10.385 13.6418 10.6683 13.9252 10.6683 14.2668C10.6683 14.6085 10.385 14.8918 10.0433 14.8918Z" fill="white"/>
</g>
</g>
</svg>
